# xmcd CD database file
#
# Track frame offsets:
#	150
#	16203
#	33314
#	48013
#	62458
#	77173
#	96061
#	112984
#	128269
#	144424
#	163006
#	178777
#	196188
#	210546
#
# Disc length: 2992 seconds
#
# Revision: 2
# Processed by: cddbd v1.5.2PL0 Copyright (c) Steve Scherf et al.
# Submitted via: CDex 1.60beta1
#
DISCID=a60bae0e
DTITLE=Harry Connick Jr - Your Songs
DYEAR=2009
DGENRE=Jazz
TTITLE0=All The Way
TTITLE1=Just The Way You Are
TTITLE2=Can't Help Falling In Love With You
TTITLE3=And I Love Her
TTITLE4=(They Long To Be) Close to You
TTITLE5=Besame Muncho (Kiss Me Much)
TTITLE6=The Way You Look Tonight
TTITLE7=First Time Ever Saw Your Face
TTITLE8=Your Songs
TTITLE9=Some Enchanted Evening
TTITLE10=And I Love You So
TTITLE11=Who Can I Turn To (When nobody Needs Me)
TTITLE12=Smile
TTITLE13=Monalisa
EXTD=YEAR: 2009
EXTT0=
EXTT1=
EXTT2=
EXTT3=
EXTT4=
EXTT5=
EXTT6=
EXTT7=
EXTT8=
EXTT9=
EXTT10=
EXTT11=
EXTT12=
EXTT13=
PLAYORDER=
